<?xml version="1.0" encoding="utf-8"?>
<!-- Svg Vector Icons : http://www.onlinewebfonts.com/icon -->
<!DOCTYPE svg PUBLIC "-//W3C//DTD SVG 1.1//EN" "http://www.w3.org/Graphics/SVG/1.1/DTD/svg11.dtd">
<svg version="1.1" xmlns="http://www.w3.org/2000/svg" xmlns:xlink="http://www.w3.org/1999/xlink" x="0px" y="0px" viewBox="0 0 1000 1000" enable-background="new 0 0 1000 1000" xml:space="preserve">
<metadata> Svg Vector Icons : http://www.onlinewebfonts.com/icon </metadata>
<g><path d="M353.8,192.2c-33.9,0-61.6,0-61.6,0s-19.6,19.6-43.5,43.5L28,456.5C4,480.4,4,519.6,28,543.5l220.8,220.8c23.9,23.9,43.5,43.5,43.5,43.5c0,0,0,0,0,0c0,0,27.7,0,61.6,0h574.6c33.9,0,61.6-27.7,61.6-61.6V253.7c0-33.9-27.7-61.6-61.6-61.6L353.8,192.2L353.8,192.2z M779.6,579.8c23.9,23.9,30.3,56.7,14.2,72.8c-16.1,16.1-48.9,9.7-72.8-14.2l-36.3-36.3c-23.9-23.9-63.1-23.9-87.1,0l-36.3,36.3c-23.9,23.9-56.7,30.3-72.8,14.2c-16.1-16.1-9.7-48.9,14.2-72.8l36.3-36.3c23.9-23.9,23.9-63.1,0-87.1l-36.3-36.3c-23.9-23.9-30.3-56.7-14.2-72.9c16.1-16.1,48.9-9.7,72.8,14.2l36.3,36.3c23.9,23.9,63.1,23.9,87.1,0l36.3-36.3c23.9-23.9,56.7-30.3,72.8-14.2c16.1,16.1,9.7,48.9-14.2,72.9l-36.3,36.3c-23.9,23.9-23.9,63.1,0,87.1L779.6,579.8z"/></g>
</svg>